<svg width="19" height="18" viewBox="0 0 19 18" fill="none" xmlns="http://www.w3.org/2000/svg">
<path d="M14.8045 5.58242H1.80446C1.25246 5.58242 0.804464 5.13542 0.804464 4.58242C0.804464 4.02942 1.25246 3.58242 1.80446 3.58242H14.8865L13.3285 2.37242C12.8925 2.03342 12.8135 1.40442 13.1525 0.969415C13.4915 0.532415 14.1205 0.453415 14.5555 0.792415L18.4175 3.79242C18.6645 3.98342 18.8065 4.27842 18.8045 4.59142C18.8025 4.90242 18.6545 5.19542 18.4045 5.38242L14.4045 8.38242C14.2245 8.51742 14.0135 8.58242 13.8055 8.58242C13.5015 8.58242 13.2005 8.44442 13.0045 8.18242C12.6735 7.74042 12.7625 7.11342 13.2045 6.78242L14.8045 5.58242Z" fill="white"/>
<path d="M4.80446 12.5824H17.8045C18.3565 12.5824 18.8045 13.0294 18.8045 13.5824C18.8045 14.1354 18.3565 14.5824 17.8045 14.5824H4.72246L6.28046 15.7924C6.71646 16.1314 6.79546 16.7604 6.45646 17.1954C6.25946 17.4494 5.96446 17.5824 5.66646 17.5824C5.45146 17.5824 5.23546 17.5144 5.05346 17.3724L1.19146 14.3724C0.944464 14.1814 0.802464 13.8864 0.804464 13.5734C0.806464 13.2624 0.954464 12.9694 1.20446 12.7824L5.20446 9.78242C5.64746 9.45142 6.27346 9.54042 6.60446 9.98242C6.93546 10.4244 6.84646 11.0514 6.40446 11.3824L4.80446 12.5824Z" fill="white"/>
<path d="M14.8045 5.58242H1.80446C1.25246 5.58242 0.804464 5.13542 0.804464 4.58242C0.804464 4.02942 1.25246 3.58242 1.80446 3.58242H14.8865L13.3285 2.37242C12.8925 2.03342 12.8135 1.40442 13.1525 0.969415C13.4915 0.532415 14.1205 0.453415 14.5555 0.792415L18.4175 3.79242C18.6645 3.98342 18.8065 4.27842 18.8045 4.59142C18.8025 4.90242 18.6545 5.19542 18.4045 5.38242L14.4045 8.38242C14.2245 8.51742 14.0135 8.58242 13.8055 8.58242C13.5015 8.58242 13.2005 8.44442 13.0045 8.18242C12.6735 7.74042 12.7625 7.11342 13.2045 6.78242L14.8045 5.58242Z" fill="white"/>
<path d="M4.80446 12.5824H17.8045C18.3565 12.5824 18.8045 13.0294 18.8045 13.5824C18.8045 14.1354 18.3565 14.5824 17.8045 14.5824H4.72246L6.28046 15.7924C6.71646 16.1314 6.79546 16.7604 6.45646 17.1954C6.25946 17.4494 5.96446 17.5824 5.66646 17.5824C5.45146 17.5824 5.23546 17.5144 5.05346 17.3724L1.19146 14.3724C0.944464 14.1814 0.802464 13.8864 0.804464 13.5734C0.806464 13.2624 0.954464 12.9694 1.20446 12.7824L5.20446 9.78242C5.64746 9.45142 6.27346 9.54042 6.60446 9.98242C6.93546 10.4244 6.84646 11.0514 6.40446 11.3824L4.80446 12.5824Z" fill="white"/>
</svg>
